<?xml version="1.0" encoding="UTF-8"?>
<svg id="Layer_1" data-name="Layer 1" xmlns="http://www.w3.org/2000/svg" viewBox="0 0 1288.309326 832.713359">
  <path d="M164.872074,59.91742c-19.833544,9.660758-39.411559,20.161509-57.433828,32.943617-15.704266,11.138088-30.209995,23.567618-41.287446,39.442916-8.71638,12.491605-14.226435,27.978615-13.754879,43.328933,.566714,18.447954,8.546906,36.430024,20.648014,50.206135,14.226574,16.195778,36.471321,23.516475,57.594749,23.051538,23.025469-.506802,44.608812-9.776054,66.045787-17.220589,24.142918-8.384243,48.177904-17.059802,72.204932-25.768775,22.58501-8.186291,45.410818-16.123556,69.04391-20.714849,2.850947-.553865,5.711636-1.058088,8.581444-1.504273,.837154-.130157,5.652915-1.042885,.862109-.15756,1.405033-.259645,2.876828-.350908,4.297303-.500164,6.185715-.649964,12.405034-.999964,18.625599-.977749,5.508637,.019672,11.775753-.215849,17.165138,1.049877-4.688642-1.101153-.054686,.016492,.843546,.165058,1.429237,.236394,2.854659,.495882,4.275358,.779126,2.717286,.541743,5.414977,1.169293,8.077936,1.936219,2.086248,.600835,4.150523,1.277629,6.189099,2.024271,.942344,.34514,2.068001,1.006615,3.050491,1.177285l-2.356502-1.000886c.669578,.289303,1.335867,.585994,1.998866,.890071,4.329597,1.985347,8.51588,4.281606,12.528717,6.846937,1.858167,1.187892,3.679176,2.433891,5.460161,3.734632l.887246,.655023c1.537337,1.16331,1.176146,.882362-1.083572-.842842,.530419,.763395,1.838139,1.489639,2.55501,2.09652,3.626854,3.07038,7.051715,6.38062,10.234921,9.909101,1.38507,1.535305,2.638429,3.663783,4.211637,4.976907-3.311436-2.763985-1.328406-1.749165-.253054-.261882,.419816,.580633,.834161,1.165669,1.241323,1.755299,2.613674,3.784989,4.958279,7.758634,6.967694,11.897062,.439836,.90585,.779993,2.002663,1.31849,2.848887-2.565882-4.032164-.87074-2.111876-.267602-.52343,.731763,1.927198,1.388547,3.883049,1.961715,5.86328,.567832,1.961798,1.054757,3.947194,1.452231,5.950538,.193768,.976624,.261421,2.043758,.526413,3.0002-1.523141-5.497516-.215071-1.609701-.084152,.161632,.303115,4.101156-.123445,8.039593-.290056,12.11856,.225243-5.514416,.303905-2.342751,.008485-.833954-.197734,1.009883-.421961,2.014568-.67241,3.012685-.596936,2.378969-1.398158,4.668196-2.218226,6.975753-1.302088,3.663895,1.981288-3.967383,.139647-.394962-.509404,.988142-.971103,1.998194-1.49537,2.979659-1.033813,1.935369-2.165365,3.818207-3.385416,5.641848-.490328,.732906-1.628185,1.83875-1.879293,2.668417l1.543144-1.97912c-.447866,.567561-.90414,1.128279-1.368822,1.682156-1.627353,1.940519-3.355952,3.795356-5.165612,5.56682-1.560281,1.527349-3.182073,2.991436-4.852794,4.396962-.803171,.675683-1.85208,1.3075-2.55922,2.077117,3.135955-3.41302,1.462142-1.140431,.16574-.210833-3.952365,2.834082-8.093562,5.399314-12.343501,7.76135-3.998414,2.222244-8.09636,4.263636-12.252535,6.173397-1.745227,.801931-3.505448,1.568148-5.263849,2.340507-3.783632,1.661921,3.953798-1.595006,.118325-.056004-1.426387,.572345-2.847243,1.157813-4.276783,1.722461-21.647026,8.550275-43.761479,15.970106-65.572666,24.094518-46.951691,17.488956-93.589555,35.820412-139.883738,54.98218-47.288088,19.573158-94.248456,39.938255-140.811923,61.178491-9.652844,4.403209-19.769506,8.39389-28.337155,14.765343-11.671493,8.679671-19.675011,20.176639-20.748297,35.00952-1.785438,24.67487,19.125762,46.921488,41.919716,52.817235,25.267757,6.535606,51.217864-1.902583,75.508616-8.608968,23.478876-6.482236,46.861292-13.308435,70.202278-20.2692,46.417777-13.842741,92.676236-28.223793,139.240252-41.573135,46.23745-13.255719,92.802104-25.514427,139.959835-35.062896,11.803316-2.389928,23.641549-4.608802,35.514217-6.626764,5.684352-.966152,11.376529-1.886365,17.076272-2.757173,2.846699-.434919,5.695272-.85758,8.545682-1.267484,1.424472-.204846,2.849397-.406539,4.274774-.604984,.949993-.132268,1.900185-.263095,2.850575-.392481-2.489021,.332476-2.68499,.359624-.587907,.081444,23.741834-3.054758,47.569758-5.320264,71.488578-6.375115,23.479353-1.03547,47.011869-.962109,70.476576,.398769,5.781701,.33532,11.558907,.748419,17.329312,1.241373,2.893621,.247196,5.785796,.51288,8.675543,.801971,1.346555,.13471,2.692787,.272872,4.037736,.422896,1.184948,.132177,7.037833,.173971,1.875694,.199218,5.078224-.024836,11.035906,1.93346,15.844359,3.437977,1.281283,.400901,2.530842,.878002,3.801808,1.30657,4.241298,1.43016-3.377894-1.891255,.547737,.258378,2.41836,1.324268,4.836193,2.555957,7.107418,4.134409,1.453937,1.010456,2.584177,2.908792-.721431-.617123,.610297,.650972,1.421009,1.19236,2.082496,1.797358,1.330619,1.216988,2.591938,2.509559,3.775497,3.870008,1.030672,1.184712,2.175082,3.586886-.627772-.93319,.462555,.745949,1.042335,1.437894,1.529261,2.170844,1.140486,1.716728,2.17105,3.505898,3.091399,5.349893,.394081,.789573,.716535,1.624007,1.124413,2.404713-2.586004-4.949785-1.044256-2.495269-.52876-1.07089,.507626,1.402634,.958527,2.825733,1.356043,4.263411,.482503,1.745048,.884851,3.51203,1.213295,5.292431,.165861,.899088,.27009,1.81141,.441085,2.708597-1.187354-6.229903-.274827-1.824913-.158225-.272574,.282742,3.764206,.270812,7.548875,.007626,11.313806-.124322,1.778444-1.504759,8.190197-.080202,1.843035-.497874,2.218294-.753769,4.497461-1.252437,6.721849-.865971,3.862804-1.971238,7.671699-3.294107,11.40261-.55746,1.572215-3.587204,7.551102-.711286,2.120444-1.085564,2.049894-1.927972,4.243463-2.998116,6.308589-1.829058,3.529654-3.866061,6.952456-6.10871,10.235143-.556865,.815113-1.126294,1.621653-1.708536,2.418842-.901912,1.234872-3.132004,3.037081,.475893-.57938-1.589312,1.593086-2.914897,3.511755-4.459636,5.162505-3.173255,3.391025-6.628754,6.526892-10.174421,9.522233-.958833,.810012-1.927881,1.607912-2.90591,2.39463-1.060306,.8529-3.175928,3.570443-.251931,.221921-1.769536,2.026448-4.908769,3.603893-7.125378,5.122584-17.081958,11.703563-35.773066,20.748184-54.068621,30.344171-19.130226,10.03377-38.233072,20.801505-54.173017,35.571962-15.649317,14.501152-27.867539,32.380798-35.572377,52.250631-7.272908,18.755936-8.860879,41.053215-1.314828,59.978869,8.085062,20.277504,23.538321,36.103657,43.512669,44.957744,19.03989,8.439867,39.490426,11.906942,60.245684,12.546744,24.465421,.754172,49.190837-1.822092,73.296363-5.819661,23.206038-3.848402,46.018665-9.810884,68.172741-17.70969,8.994007-3.20672,15.981004-12.624214,12.781446-22.51118-2.868985-8.86546-12.857322-16.223429-22.51118-12.781446-23.077543,8.228058-46.870975,14.351545-71.073713,18.179648-2.406126,.380572-4.84265,.836301-7.267072,1.079933,4.789513-.481303-.161112,.013082-.96251,.112335-1.458245,.180604-2.917503,.353028-4.377683,.517249-6.327403,.711619-12.672132,1.269276-19.026707,1.671585-10.769,.681786-21.599071,1.040097-32.383946,.530754-4.12198-.194671-8.238787-.5152-12.338596-.986157-1.510669-.173535-4.603164-1.296238,.393673,.078487-1.05143-.289268-2.257849-.335358-3.336092-.513782-2.578169-.426628-5.145508-.920043-7.695802-1.490435-4.310042-.963974-8.574344-2.14377-12.74752-3.591966-1.028519-.356921-2.051577-.729645-3.067947-1.119844-1.644533-.63136-3.439179-2.35017,.371588,.204387-1.997515-1.339039-4.588059-2.127294-6.716643-3.294457-1.853727-1.016451-3.667344-2.10661-5.428661-3.2761-.876586-.582041-1.722937-1.202722-2.587084-1.802111-2.455603-1.703253,1.047291,.709537,1.208216,.946224-1.045925-1.538334-3.342462-2.848113-4.695821-4.181105-1.724896-1.69894-3.13991-3.913361-4.935434-5.494123,3.342012,2.942276,1.333207,1.732942,.327232,.253278-.610086-.897361-1.195352-1.811623-1.754941-2.741312-.948476-1.575778-1.794468-4.665677-3.093292-5.872875l.983656,2.378144c-.272213-.664864-.531628-1.334684-.778247-2.00946-.366983-1.004142-.705342-2.018724-1.014696-3.042087-.718045-2.375334-1.201515-4.778739-1.677094-7.209948-.7488-3.827949,.341019,4.579914,.113307,.68818-.061566-1.052195-.169028-2.099167-.213496-3.153129-.089179-2.113715-.070024-4.231659,.047852-6.343857,.049431-.885741,.118658-1.769679,.202464-2.652755,.158273-1.667766,1.099796-3.33021-.203402,1.147343,.694469-2.386069,.874615-4.999366,1.480899-7.427431,1.069574-4.283463,3.187153-8.352914,4.19207-12.596176-1.084436,4.57903-.700264,1.692247-.021792,.24342,.482078-1.029442,.981398-2.050797,1.49649-3.064117,1.213252-2.386786,2.515988-4.727904,3.896996-7.021623,1.195547-1.985686,2.450592-3.935475,3.759167-5.848527,.657613-.961389,1.32899-1.913357,2.013293-2.855931l.689861-.940976c1.172204-1.556553,.926277-1.251348-.73778,.915616-.116311-.075925,8.458601-9.771376,9.230906-10.566366,3.233237-3.328203,6.639565-6.489127,10.205612-9.45814,.578862-.481947,2.376505-1.495643,2.671952-2.164702l-1.900047,1.466465c.602534-.457329,1.209221-.909081,1.820062-1.355254,2.310105-1.687063,4.677813-3.296649,7.06664-4.869762,35.498555-23.376842,76.692013-37.130277,108.377019-66.315441,27.138705-24.997551,41.810614-64.757918,34.543742-101.24995-3.654248-18.350525-14.807694-34.497251-30.523311-44.560798-10.30097-6.596259-22.471569-9.994657-34.463987-11.772743-12.366146-1.833498-24.84728-2.899416-37.318379-3.707122-95.832599-6.206716-191.832757,9.372485-284.607959,32.368269-92.935049,23.035404-183.732731,53.67015-275.857871,79.599501-11.173258,3.144802-22.35259,6.307139-33.598146,9.185105-2.785479,.712861-5.579416,1.394534-8.389514,2.004007-2.607857,.565609-5.789384,1.667-8.464248,1.587752,4.648886,.137732,.293117-.043673-.789013,.060816-1.40834,.135988-2.819766,.241759-4.233211,.307197-1.405053,.06505-2.811918,.094943-4.218472,.079473-1.41925-.015609-4.318998,.358106-5.588369-.297597l2.091364,.312917c-.923019-.136295-1.841908-.296308-2.756668-.480037-1.378608-.277824-2.747623-.607988-4.098436-.999664-.803485-.232975-2.551936-1.157856-3.394253-1.135224l2.370152,.99401c-.661693-.305023-1.313983-.628983-1.956867-.971879-.968854-.516184-1.915081-1.07478-2.836983-1.670708l-.916032-.610436c-1.563949-1.125119-1.211808-.83149,1.056423,.880887-.250745-.635165-1.958217-1.689782-2.478128-2.187476-.617457-.591071-2.25185-3.027219-3.001264-3.20071,1.285522,.297603,2.166118,3.128933,.867538,1.118436-.586298-.907722-1.203951-1.783514-1.748034-2.719314-.424168-.729552-.882045-2.270865-1.479122-2.831514l1.019477,2.43228c-.251957-.649822-.481538-1.307454-.688745-1.972896-.308716-.994835-.506907-2.001365-.762125-3.008326-.915165-3.610776,.002982,4.497981,.179195,.796328,.038801-.815074,.2584-2.289033,.080221-3.066153-.487822,3.157744-.545854,3.761196-.174095,1.810354,.153921-.681352,.338247-1.354379,.552979-2.019082,.843549-3.546427-2.201645,3.52095-.106671,.31502,.18762-.287115,1.85198-2.640549,1.786885-2.86644l-1.488092,1.930885c.481704-.574414,.983109-1.131083,1.504214-1.670008,.78953-.819456,1.652365-1.543304,2.473824-2.326728,2.884061-2.750526-3.463842,2.206768-.066059,.057221,.984608-.622894,1.932693-1.29853,2.926964-1.908572,2.341038-1.436361,4.771676-2.721804,7.232264-3.939705,10.351294-5.123509,20.998849-9.704924,31.524572-14.455675,22.6029-10.201748,45.296423-20.202715,68.076943-30.00142,5.578903-2.399683,11.163024-4.787236,16.75231-7.162636,2.7946-1.187682,5.588187-2.378143,8.387795-3.553984-4.052258,1.701956,.644848-.270459,1.224651-.514394,1.865952-.785044,3.732473-1.568735,5.599561-2.351074,11.202528-4.694031,22.425468-9.339352,33.668392-13.935789,22.954303-9.384392,45.991913-18.565016,69.10921-27.540394,23.117296-8.975378,46.314279-17.745511,69.587328-26.308921,21.703608-7.985928,43.75485-15.222775,64.925724-24.573706,17.522355-7.739422,35.115331-18.060708,47.56541-32.906666,13.522957-16.1253,21.91522-36.41423,20.338214-57.75116-2.962605-40.084109-32.510604-75.408599-68.788876-90.988755-46.06957-19.785151-97.930001-8.74753-143.592679,6.626241-23.383837,7.872901-46.45311,16.691992-69.711944,24.925376-12.1209,4.290671-24.260663,8.528056-36.418821,12.711988-10.488471,3.609351-20.976263,7.805301-31.806403,10.276502-2.207504,.503704-4.429185,.888522-6.659263,1.272922-4.020936,.693092,4.479103-.383373,.428615-.084679-1.106026,.081561-2.207601,.205078-3.315055,.274666-2.187487,.137452-4.380658,.189127-6.572106,.144586-1.082371-.021999-2.164314-.066746-3.24468-.136376-1.592477-.102637-6.102719-1.252139-.460259,.106377-3.777176-.909418-7.522113-1.400281-11.223831-2.677188-.963514-.332364-1.933812-.830393-2.913299-1.097184,4.778472,1.301551,2.046802,.855416,.604839,.127392-2.176812-1.099037-4.180564-2.411346-6.226704-3.726247-3.190649-2.050391,3.206472,2.867829,.379319,.307467-.787394-.71309-1.601835-1.388858-2.370499-2.123912-1.266797-1.211406-2.903883-4.052808-4.398465-4.797393l1.503516,1.938308c-.446749-.60744-.880344-1.22413-1.300784-1.85007-.564811-.83892-1.104293-1.695612-1.631791-2.558388-1.107927-1.812124-2.149804-3.665088-3.108832-5.560387-.816398-1.613425-2.657516-7.324797-.645157-1.121884-.424035-1.307051-.981696-2.573684-1.405555-3.884073-.491861-1.520622-.922262-3.06132-1.282563-4.618445-.176118-.761139-.310889-1.529644-.477931-2.292275-.955193-4.360945,.281369,4.090984,.096231,1.0689-.184808-3.01671-.37506-5.964969-.139766-8.989894,.056945-.73208,.211055-1.489799,.224677-2.221898-.107705,5.788707-.576384,3.647641-.19535,1.917665,.378457-1.718276,.734153-3.426741,1.233128-5.116634,.434959-1.473088,1.000912-2.891641,1.486698-4.345642,1.019386-3.051109-2.025494,4.422114-.636821,1.494191,.339728-.716294,.66532-1.437782,1.018401-2.14789,1.467426-2.95125,3.162076-5.787105,5.019442-8.508844,.926353-1.357454,4.964748-6.006286,.750207-1.201893,1.194057-1.361173,2.288021-2.812439,3.486521-4.172974,2.760082-3.133239,5.700084-6.105809,8.758298-8.947751,3.057859-2.841612,6.237017-5.551468,9.498792-8.155885,1.156345-.923302,3.939056-2.151263-.245381,.162889,.937685-.518575,1.823888-1.379577,2.68749-2.017786,1.850828-1.367779,3.722936-2.70671,5.612414-4.020548,17.504188-12.171441,36.386051-22.281643,55.528139-31.605599,8.627491-4.202381,11.640905-17.165003,6.565156-25.037883-5.703385-8.846391-15.809918-11.060022-25.037883-6.565156h0Z"/>
</svg>