<?xml version="1.0" encoding="UTF-8"?>
<svg id="Layer_1" data-name="Layer 1" xmlns="http://www.w3.org/2000/svg" viewBox="0 0 1288.309326 888.133059">
  <defs>
    <style>
      .cls-1 {
        fill: #ffc5df;
      }
    </style>
  </defs>
  <path class="cls-1" d="M210.648002,868.708176c21.890955,9.026426,212.102209-32.318298,312.535861-64.520238,21.609511-6.928632,43.718272-14.116007,61.606335-28.080036,36.407897-28.421242,47.816592-81.219562,35.568969-125.753792-12.247622-44.534231-44.433948-81.304898-81.383426-109.018397-36.949478-27.713499-78.967153-47.709488-119.454024-69.93819-19.986731-10.973412-40.888802-23.864868-49.994927-44.768544,25.180445,6.1093,49.018192,12.583667,71.995782,15.518933,18.222255,2.327797,86.43716,10.302449,110.51851,2.276529,25.043634-8.346632,50.480679-18.04246,69.851397-35.97637,28.109066-26.024095,39.528635-67.332083,33.422023-105.148511-6.106612-37.816428-28.25292-71.920207-57.260533-96.938826-28.087645-24.225161-63.090451-41.309727-84.760437-71.412641,21.632001,3.348531,44.483371-12.390011,49.067219-33.79432,4.126724-19.26976-5.155713-38.823622-16.131058-55.191129-5.40469-8.060004-11.48999-15.986977-19.75976-21.064894-8.392116-5.153048-18.483041-6.983813-28.330488-6.887407-35.754867,.350038-68.573672,26.181976-81.917872,59.355237-13.344199,33.173261-8.8,71.891135,7.344067,103.795711,16.144067,31.904576,42.935634,57.477224,72.862006,77.046208,20.650232,13.503281,44.31923,25.873563,54.666541,48.272309,3.851652,8.33764,5.378239,18.596212,.603722,26.441941-6.572674,10.800557-60.963585,4.375161-73.593174,4.96301-26.532306,1.234956-103.273554-11.68219-133.199345-9.388281-20.082617,1.539398-56.094557,15.91524-74.602427,65.767845-10.903112,29.368507,5.46366,63.670212,13.168714,79.408995,26.864787,54.875547,73.626529,83.140488,127.22454,112.471282,40.678186,22.2606,84.619233,44.740897,107.852066,84.871737,3.744444,6.467901,6.918434,14.328773,4.039943,21.225793-1.508728,3.61499-4.491591,6.39649-7.578847,8.807559-15.847979,12.376868-150.329825,30.624117-174.37652,34.513623-28.824596,4.662323-112.484804,22.438563-130.46025,27.6227-8.275818,2.386709-16.97757,4.62509-23.385006,10.380907-9.522724,8.554286-11.910381,22.676866-10.697731,35.420004,2.275563,23.912768,13.405109,55.88409,34.55813,59.721252Z"/>
  <path d="M205.823748,886.207174c5.123885,2.03315,11.449244,1.979422,16.931447,1.895351,7.388043-.113297,14.770622-.869186,22.102516-1.736962,23.38601-2.767882,46.605969-6.840178,69.714673-11.335779,55.550564-10.806889,110.747012-23.900412,165.27182-39.051108,27.982372-7.775405,56.411019-15.586774,83.197427-26.890771,16.960443-7.157391,33.038423-16.725918,45.655527-30.334484,11.756998-12.680872,20.238373-27.504832,26.177223-43.683639,11.216426-30.556149,10.953528-65.807697,.852189-96.60689-11.130468-33.93703-32.31566-63.743692-58.072656-88.197243-27.39713-26.010685-59.733176-46.129778-92.689718-64.26587-16.844784-9.269739-33.919204-18.113199-50.815641-27.28736-7.180154-3.898567-14.360396-7.816677-21.263443-12.194236-1.84446-1.169662-3.669874-2.370232-5.466579-3.612124-.808858-.559087-3.291139-3.041184-4.236328-3.045967,1.177001,.005956,2.455083,2.001353,.596925,.451625-.826561-.689363-1.666222-1.361437-2.484086-2.061463-1.785554-1.528292-3.51966-3.117007-5.180586-4.780311-1.198137-1.199853-2.36075-2.435829-3.477627-3.711769-.188304-.215121-3.006812-3.283202-.997829-1.094677,1.715868,1.869215-.083533-.133459-.479608-.692142-2.341834-3.303272-4.304013-6.810346-5.962999-10.501634-6.831287,8.886085-13.662573,17.772171-20.49386,26.658256,25.632182,6.233561,51.066919,12.872369,77.278149,16.225537,13.159454,1.683471,26.367108,3.044472,39.593331,4.076651,16.583995,1.294221,33.339486,2.247741,49.968502,1.30223,7.81236-.444204,15.905022-1.136494,23.467665-3.245583,10.314975-2.876667,20.493373-6.960989,30.353987-11.097597,22.144159-9.289655,43.650799-21.505377,59.016387-40.423469,14.443615-17.782961,24.440938-38.905093,28.261566-61.569758,3.834945-22.749596,2.821079-45.797553-3.723197-67.992001-6.799472-23.059924-18.697955-43.805004-33.602768-62.520651-15.791543-19.829095-35.758129-35.086924-56.260656-49.724614-5.18885-3.704557-10.395013-7.38553-15.532325-11.161606-2.184664-1.605792-4.447025-3.160735-6.533386-4.89263,3.566709,2.960735,.026679,.007058-.606452-.495642-1.412128-1.121216-2.813887-2.255548-4.201686-3.406762-4.487159-3.722211-8.83825-7.614094-12.949524-11.749603-2.208794-2.221814-4.349394-4.511941-6.402219-6.878822-.882157-1.017116-1.723202-2.067261-2.596197-3.091604-1.241561-1.561322-1.128716-1.399157,.338535,.486494-.545039-.720171-1.081409-1.446741-1.609109-2.179711-6.831287,8.886085-13.662573,17.772171-20.49386,26.658256,10.663243,1.481959,21.138711,1.276938,31.326801-2.659094,9.455226-3.6529,18.274327-8.967539,25.183512-16.496497,15.803162-17.22075,19.936845-40.601926,13.372814-62.832505-3.11191-10.539186-8.147128-20.655863-14.017164-29.920615-5.497636-8.676988-11.626299-17.669828-19.477506-24.397707C526.336592,.269482,502.02953-2.6866,478.731047,2.062961c-37.69879,7.685165-67.971828,37.835166-81.05136,73.179995-14.842541,40.109008-6.54707,86.625743,14.471073,122.921234,19.963958,34.475056,50.540978,60.204516,83.791967,81.265103,3.660267,2.318348,7.323766,4.632504,10.935561,7.026084,3.381577,2.241012,6.913675,5.76918,10.569495,7.441821-3.664899-1.676795-.859903-.656229,.339965,.332447,.653843,.538758,1.302359,1.084475,1.944207,1.637412,1.593234,1.372535,3.148612,2.792647,4.646964,4.268397,1.486009,1.463593,2.924943,2.976618,4.291638,4.552528,.198307,.228664,1.492593,1.467244,1.603094,1.910179-1.546961-2.045625-1.736017-2.280088-.567167-.703391,.366428,.504929,.722636,1.016919,1.068624,1.535969,1.053165,1.55791,2.038082,3.160808,2.939195,4.811603,.49074,.899012,1.575189,2.377015,1.710278,3.396722-.419787-3.168718-.611511-1.708747-.26651-.468029,.36969,1.329507,.74055,2.728637,1.168484,4.038541,.347868,1.064825,1.443678,2.861906,.045334-.701905,.361152,.920429,.1644,2.444968,.148461,3.434927,.001576,.681534-.032296,1.361609-.101616,2.040225,.383648-2.583667,.357169-2.866213-.079437-.847638-1.405666,2.916001,.124955-.035407,.358423-.567109-1.851956,4.217659,2.989104-3.058831,1.43268-1.534207-1.548465,1.516829,4.865832-3.242486,1.674142-1.345512-3.395702,2.018229,4.454675-1.264356,1.298611-.525364-1.162696,.272245-2.294759,.672654-3.46696,.926023-1.195229,.258346-2.459835,.337973-3.641119,.638823,6.256939-1.593525,1.842254-.267298-.053522-.107606-3.165156,.26662-6.34174,.390359-9.516998,.448354-6.646095,.121389-13.295628-.06663-19.935769-.341285-9.726306-.402308-19.404065-1.037176-29.138254-.913618-11.957423,.151778-23.9725-1.182477-35.853673-2.36442-15.344352-1.526461-30.663867-3.293133-46.011788-4.784823-23.348091-2.26924-48.880555-5.905246-71.467135,2.444278-32.202003,11.904033-54.177248,37.807857-67.10734,68.985196-14.843229,35.790339-.515217,74.985023,17.19607,107.004368,17.614629,31.844602,44.025087,56.925334,73.735924,77.422654,29.267285,20.191317,61.404266,35.480791,91.959964,53.515822,8.062746,4.758912,16.000969,9.740582,23.65974,15.129177,1.626806,1.144596,3.240402,2.307784,4.839698,3.490513,.87683,.648443,1.828319,1.261359,2.644581,1.983341-3.018694-2.670033-1.267027-.9943-.546062-.411694,3.744093,3.025574,7.441779,6.090146,10.9827,9.353952,3.194539,2.944532,6.279312,6.009566,9.222751,9.205475,1.469202,1.595221,2.903758,3.222467,4.299024,4.882772,.558482,.664569,1.101839,1.341151,1.656376,2.008966,2.57361,3.099336-1.807817-2.564037,.361311,.444885,2.562291,3.5543,5.049451,7.137927,7.286599,10.909636,1.178317,1.986579,2.435736,4.062195,3.285125,6.21709-1.484353-3.765794-.447488-1.025138-.317158-.318656,.27409,.896337,.498633,1.804911,.67363,2.725724-.288206-2.548302-.388269-2.792461-.300189-.732476,.108948-.918536,1.205031-3.562462,.00868-.811503,2.584935-5.943951-.965465,1.875794,.790989-1.538323,1.178023-2.289789-.693746,.63652-1.171271,1.090317-.157387,.149567-1.847617,1.36972-1.978387,1.733652,.931626-2.592694,3.532073-2.246419,1.506537-1.238513-.590091,.293629-1.183004,.637796-1.761784,.955852-1.486021,.816612-4.606238,1.60839,2.167714-.855003-.705824,.256678-1.396338,.561657-2.100343,.824784-1.63254,.610172-3.288194,1.158705-4.951038,1.679846-9.440256,2.958607-19.146093,5.099934-28.818843,7.138109-25.034993,5.275199-50.313289,9.411416-75.58328,13.378403-18.778926,2.947993-37.605746,5.585992-56.382071,8.547249-24.262506,3.826496-48.343592,9.082999-72.361074,14.187935-22.878101,4.862759-46.544043,8.912774-68.752515,16.429599-12.101366,4.095908-22.125113,10.36983-29.455416,21.003292-6.106559,8.858278-8.521068,20.191249-8.995989,30.772299-.802527,17.87997,4.348382,36.598458,11.687668,52.743094,6.856632,15.082915,19.471981,29.812267,36.423495,33.24062,9.277576,1.87634,20.043608-2.666121,22.323253-12.674745,2.058549-9.037919-2.724856-20.310941-12.674745-22.323253-1.531786-.309796-2.995235-.986643-4.503994-1.288373,4.209423,.841824,2.913922,1.44639,1.375783,.426901-.646114-.428249-1.351255-.834881-2.020295-1.226711-1.368662-.801571-.999284-1.714796,1.35559,1.123371-.494472-.595953-1.269687-1.080722-1.842113-1.616939-1.249646-1.170598-2.3894-3.128824-3.780159-4.084466,2.741953,1.884098,1.789145,2.542941,.631927,.72629-.48159-.756022-1.007398-1.484119-1.484792-2.244025-.881325-1.402876-1.700293-2.84343-2.473519-4.308408-.795188-1.506589-1.500731-3.050461-2.2279-4.589623-1.744926-3.693401,1.415849,3.948962,.057534,.065619-.385433-1.101931-.820165-2.18653-1.201857-3.290455-1.149586-3.324812-2.128875-6.708795-2.958669-10.127176-.455065-1.874664-.864458-3.760653-1.228842-5.655038-.143473-.745901-.280023-1.493483-.409397-2.241998-.104156-.602609-.814296-5.434497-.349058-2.003318,.448125,3.304968-.01483-.304365-.069248-.827818-.079484-.764565-.154475-1.530714-.212136-2.297368-.156762-2.084291-.218778-4.176801-.167882-6.266613,.020438-.839196,.05793-1.680199,.115114-2.517957l.099462-1.255806c.219456-2.032315,.161559-1.670208-.17369,1.086321-.5756-.525745,1.156684-5.204059,1.420832-6.047651l.385062-1.169601c.697652-1.854081,.544452-1.543666-.459603,.931246-.085235-.148857,1.140474-2.242116,1.09915-2.16764,.392877-.708068,.861505-1.3682,1.25456-2.073355,1.901558-3.411464-2.784649,2.446148,.160559-.146302,.602367-.530219,1.179733-1.170328,1.754962-1.723334,3.007184-2.891005-2.174669,1.030063,.08846-.002206,.996647-.454596,1.928337-1.171578,2.909691-1.676233,.599236-.31119,1.207412-.603531,1.824531-.877024,1.219511-.552717,.818372-.378408-1.203417,.522928-.050741-1.173607,13.967805-4.308785,16.685505-5.004897,9.998814-2.561094,20.083583-4.800057,30.159123-7.034988,42.513594-9.43026,85.076889-17.715311,128.125834-24.194109,24.32086-3.660251,48.626643-7.460076,72.830917-11.832797,20.09038-3.629508,40.91783-6.904441,60.237993-13.714939,13.168143-4.641866,25.73886-12.96036,29.447232-27.48374,5.587234-21.881713-11.845046-43.825232-25.578105-59.016531-24.27196-26.849268-56.902611-44.669578-88.291032-61.787917-15.210449-8.295339-30.417103-16.619392-45.16826-25.715968-6.998152-4.315541-13.892082-8.804007-20.607332-13.549102-1.697252-1.199303-3.383199-2.414697-5.056088-3.64777-1.026817-.756859-6.593414-4.51969-2.261377-1.655421-3.376923-2.232764-6.48345-5.168722-9.550017-7.805702-6.214841-5.344221-12.152628-11.014541-17.71199-17.039234-2.518167-2.728943-4.958998-5.529563-7.313745-8.400756-.658256-.802626-1.294607-1.623532-1.953873-2.425088-1.710082-2.079169,2.656529,3.567394,.158403,.209909-1.380126-1.854892-2.747648-3.716743-4.068876-5.614475-4.826383-6.932328-9.161954-14.202381-12.983851-21.73503-1.456731-2.871098-2.855863-5.774396-4.218657-8.691187-.640545-1.37096-1.269431-2.747317-1.88374-4.130238-.353883-.796654-.632584-1.707428-1.073354-2.455319l.965633,2.290436c-.291732-.701691-.579096-1.405166-.862092-2.110426-3.106066-7.751377-5.695612-15.738278-7.322497-23.937422-.171408-.863861-.332083-1.730312-.481733-2.598148-.057014-.330632-.483907-4.599343-.26076-1.528936,.226357,3.114583-.085626-1.278247-.109326-1.56381-.073704-.888068-.133391-1.778031-.178865-2.667896-.113933-2.229491-.134465-4.468192-.043907-6.698951,.036303-.894266,.087419-1.789451,.158138-2.681849,.070446-.894429,.159368-1.787017,.266766-2.677765-.331758,2.37221-.381719,2.868421-.149885,1.488635,1.050792-4.311841,2.132305-8.405308,3.693134-12.574897,1.186796-3.170399,.00617-.162791-.211424,.404806,.490573-1.279671,1.110994-2.532408,1.690556-3.773673,.937675-2.008246,1.926844-3.992466,2.967537-5.949316,1.950346-3.667299,4.091511-7.235601,6.427662-10.670312,.881732-1.296361,1.812151-2.555932,2.727495-3.828154,2.382975-3.312056-2.662976,3.122633-.03556,.085965,.724224-.837031,1.415306-1.702302,2.144449-2.535766,2.088949-2.387824,4.293348-4.675497,6.609563-6.843748,1.221175-1.143164,2.47337-2.25357,3.755473-3.327992,.622599-.521747,1.277973-1.010068,1.892241-1.540839,.931909-.805235-3.723993,2.743857-.252704,.257292,4.546874-3.257033,9.370645-5.779536,14.345178-8.289266,2.927416-1.476927-4.436344,1.692063-1.399993,.575486,.486108-.17876,.96467-.384029,1.448669-.568128,1.175249-.447031,2.361161-.866214,3.556797-1.255478,2.224925-.72437,4.484562-1.345487,6.769719-1.84907,1.054355-.232349,2.11395-.418617,3.174197-.619815,3.904166-.740873-5.16061,.468226-1.236382,.148381,2.199091-.179237,4.389093-.337757,6.596329-.392241,27.347802-.675066,54.97132,3.741555,82.10766,6.562564,12.441407,1.29337,24.926355,2.646526,37.435216,3.057999,8.952089,.294475,17.867687,.161841,26.829008,.607463,12.263793,.609845,24.638427,1.278075,36.902756,.346763,6.160071-.467775,12.643682-1.035409,18.508603-3.116868,9.70142-3.443032,16.104943-9.800167,19.342273-19.798958,6.893993-21.292729-5.345581-43.864289-20.001785-58.709395-12.868471-13.034331-29.034357-22.221951-44.274123-32.122404-3.437577-2.233208-6.83299-4.529971-10.171804-6.908537-1.873598-1.334748-3.715582-2.709118-5.566091-4.075272-2.654219-1.9595-.080879-.024364,.384278,.320746-1.291546-.958224-2.533868-1.99302-3.78333-3.00516-6.961676-5.639382-13.61817-11.660525-19.860368-18.088953-3.18954-3.284697-6.271151-6.674929-9.226443-10.172021-1.328014-1.571482-2.601584-3.185501-3.90385-4.777729-1.786748-2.184586,2.539336,3.501043-.086588-.127851-.802923-1.109599-1.628407-2.202267-2.422771-3.318366-5.328989-7.487346-10.085277-15.396642-14.068849-23.681752-.419444-.872368-.829737-1.749503-1.23185-2.629941-.03145-.06886-1.905006-4.449026-.828048-1.830545,1.078946,2.623314-.696085-1.814848-.721155-1.880021-.348529-.906068-.687553-1.816148-1.018064-2.728892-1.736213-4.794759-3.210666-9.684676-4.418261-14.63889-.517184-2.121769-.9854-4.254924-1.402805-6.398566-.23167-1.189776-.444448-2.382829-.64371-3.57841-.183544-1.101275-1.030529-4.314496-.094973-.205966-1.043279-4.581598-.965635-9.759048-1.038997-14.442356-.075629-4.828046,.270368-9.59418,.632371-14.402073,.065877-.874941,.261631-3.605338-.118689,.538843,.108878-1.186394,.360983-2.378467,.566681-3.551858,.45547-2.598197,.998446-5.181521,1.640937-7.740099,1.119813-4.459404,2.657881-8.719355,4.179724-13.047947,.977706-2.780899-1.905256,4.004551-.114569,.256284,.354784-.742634,.684825-1.496405,1.04133-2.238555,1.070169-2.22781,2.231252-4.41326,3.471587-6.550873,1.867738-3.21889,3.941799-6.290399,6.127362-9.299608,2.430383-3.346292-1.931479,2.258502-.175408,.250462,.678895-.776306,1.312848-1.594274,1.988596-2.374224,1.486714-1.715969,3.030541-3.381267,4.629637-4.993035,2.376264-2.395095,5.608168-6.485012,8.740409-7.826778-2.853538,1.222377-1.975394,1.460317-.732491,.595861,1.010619-.7029,1.998636-1.435013,3.019549-2.123881,1.696463-1.1447,3.43054-2.233613,5.197676-3.265836,1.761603-1.028992,3.559673-1.999701,5.387717-2.905472,.729023-.361221,1.478238-.68908,2.204079-1.056659,3.794285-1.921495-3.834875,1.380135,.150511-.095743,3.818434-1.414052,7.637993-2.72341,11.608773-3.653408,.689621-.161517,5.941413-1.32494,5.980197-1.166323,.017107,.069962-4.764663,.498202-1.190726,.171665,.813341-.074312,1.624296-.160992,2.438761-.22195,2.12575-.1591,4.258558-.228546,6.390179-.207948,1.235837,.011942,2.469715,.059933,3.702989,.137827,.740959,.041078,1.480693,.098693,2.2192,.172845,2.105487,.232905,1.966939,.21276-.415644-.060433,1.674425-.260049,4.13752,.84226,5.759328,1.310516,1.333778,.385094,2.955919,.744613,4.179396,1.414592-.581881-.31864-3.213433-1.705719-.319395-.013377,1.04929,.613592,2.12323,1.165261,3.150006,1.819893l.583349,.372252c1.637795,1.162524,1.524041,1.032831-.341264-.389079,1.654692,.401885,3.926825,3.513531,5.049043,4.691842,1.519528,1.595481,3.362955,3.36565,4.525248,5.264986-2.069748-3.382235-.544557-.639179,.082077,.236945,.675013,.943765,1.337744,1.895954,1.990718,2.855115,2.786889,4.093695,5.420172,8.295505,7.794683,12.642695,1.204203,2.204622,2.292154,4.453634,3.381842,6.715608,1.500391,3.114509,.244218,.343998-.052212-.214309,.566299,1.066587,.907207,2.338795,1.306751,3.479107,.730821,2.085791,1.379087,4.200189,1.913004,6.345284,.353274,1.419335,.61065,2.849223,.911213,4.279065,.799552,3.803639-.056795-3.286602,.057516,.923947,.059147,2.17863,.154982,4.318921,.012177,6.501365l-.047196,.723359c-.212289,2.090942-.183848,1.929614,.085323-.483984,.101822,.079185-.444248,2.169398-.547473,2.586873-.281003,1.136469-.680999,2.228544-.991829,3.353863-.715322,2.589728-.359525-1.080616,.546977-1.095209-.177442,.002857-2.803971,5.220271-3.049489,5.600202-.159766,.247233-1.580912,2.430854-1.654231,2.387425-.428593-.253862,2.607685-2.961611,.643464-.957158-1.366005,1.393984-2.646758,2.836827-4.107303,4.138038l-.883037,.765282c-1.204521,.979664-1.202773,.991131,.005244,.034402l.907253-.709035c-.631184,.457993-1.27324,.9002-1.926169,1.32662-1.468602,.959083-2.990282,1.832971-4.556126,2.623015-1.422654,.717798-3.403144,.815662,.613995-.148127-.714019,.171307-1.476929,.566051-2.185767,.807178-1.84717,.628357-3.716936,1.059739-5.610009,1.507262-3.143157,.743042,1.053128-.3005,1.385046-.112404-.500323-.28353-2.842891,.227383-3.47214,.244307-1.522775,.040955-7.854971-.580545-2.146915,.212751-7.493646-1.041454-14.14763,.12558-19.075074,6.503353-4.081373,5.282674-5.655137,14.344137-1.418786,20.154903,13.727582,18.829356,31.045497,33.201115,49.782025,46.83829,8.473222,6.167141,17.098421,12.124326,25.50456,18.383829,1.094707,.815157,2.18008,1.642495,3.272216,2.461021,3.719647,2.787775-2.992707-2.396426,.639779,.497162,1.773373,1.412645,3.545881,2.824787,5.289864,4.273941,4.169773,3.464855,8.208357,7.084003,12.082086,10.87745,3.555137,3.481457,6.975093,7.101563,10.244285,10.852893,1.634968,1.876092,3.231148,3.785473,4.78868,5.726299,.664422,.82793,2.802842,3.177638,.086586,.068263,1.175469,1.345593,2.179259,2.912749,3.216054,4.366567,6.013984,8.432952,11.289581,17.40122,15.627916,26.809358,.557042,1.208006,1.19559,2.436879,1.643672,3.690129-.181075-.506453-1.459938-3.691624-.284619-.604843,.957945,2.515886,1.924206,5.022273,2.78317,7.574745,1.717177,5.102713,3.150991,10.301572,4.273032,15.567505,.468829,2.200296,.884586,4.412752,1.242271,6.633854l.199204,1.276007c.293103,2.031722,.2497,1.704401-.130207-.981963,.443186,.921538,.309265,2.839685,.398804,3.860342,.452949,5.163188,.589665,10.355765,.406809,15.535579-.07626,2.160243-.205108,4.318651-.389671,6.472371-.110776,1.292682-.262874,2.579669-.391117,3.870417-.446024,4.489143,.70703-4.132452-.056388,.312179-.877473,5.108659-1.925356,10.162799-3.365331,15.146731-.596885,2.065892-1.248082,4.116172-1.954132,6.147357-.422981,1.216845-.865469,2.426917-1.327743,3.629386-.442612,1.151323-1.119701,4.860705-.121674,.426364-.993124,4.412558-4.4449,9.267288-6.757625,13.104734-1.212058,2.011137-2.487053,3.983528-3.82871,5.910749-.677217,.972787-1.385565,2.301291-2.252064,3.112225,2.730893-2.555772,1.213863-1.51697,.470833-.644612-3.37899,3.967121-6.84308,7.790151-10.718606,11.284443-1.065828,.960983-2.153165,1.898332-3.257551,2.814698-.591467,.490771-3.979955,3.723746-.824945,.70167-1.659478,1.589557-3.925525,2.832783-5.849201,4.102985-4.784395,3.159133-9.782842,5.988767-14.901038,8.569036-2.574181,1.297739-5.18089,2.530486-7.810934,3.710714-.074588,.033471-4.410299,1.965241-1.80811,.81674,2.601176-1.148054-1.763298,.722107-1.841005,.753594-5.37154,2.176595-10.813792,4.174751-16.286514,6.081142-3.755977,1.308373-7.511486,2.741932-11.378487,3.696396-1.435379,.354284-2.887444,.639727-4.34444,.888924-.520423,.08901-1.046872,.155857-1.566423,.250239-3.023301,.549211,5.362611-.624407,.673053-.117993-15.726487,1.698266-31.758669,.961631-47.507221-.030812-15.425206-.972067-30.820268-2.486096-46.159911-4.370413-1.116599-.137163-2.550263-.083225-3.612584-.452368,.529565,.184017,3.918,.582814,.317529,.02987-2.016419-.309673-4.032685-.614664-6.044501-.953752-6.684319-1.126628-13.32922-2.477815-19.947006-3.942659-13.893229-3.07526-27.672459-6.641993-41.497551-10.004155-7.170019-1.743697-14.544322,.639032-19.075074,6.503353-4.773038,6.177921-4.505699,13.286441-1.418786,20.154903,14.558694,32.39348,50.991341,48.491708,80.515392,64.207977,33.155646,17.649443,66.34197,35.298771,96.518746,57.818855,.855336,.638313,2.704754,1.427163-.46526-.377662,.717776,.408661,1.459006,1.139408,2.123347,1.665422,1.589141,1.258254,3.165717,2.532233,4.729361,3.822035,3.307734,2.72845,6.556294,5.528336,9.739036,8.401667,6.031109,5.444795,11.823724,11.157763,17.31444,17.147785,2.585176,2.820263,5.102497,5.702625,7.54515,8.647203,.861257,1.038232,3.503218,3.329466,3.806867,4.71746-.394015-1.801062-1.589581-2.104327-.377854-.473812,.801529,1.078547,1.607025,2.153005,2.394977,3.241613,4.707387,6.503566,9.037664,13.286312,12.884306,20.334567,1.917181,3.512877,3.717919,7.089574,5.38591,10.727512,.370676,.808455,.728655,1.622252,1.092382,2.433857,1.522064,3.396274-.350984-.540214-.264978-.6504-.349446,.447692,2.164585,5.568003,2.404048,6.230714,2.609387,7.221453,4.70763,14.630375,6.11488,22.181376,.336366,1.804871,.610446,3.615816,.894524,5.429052,.421766,2.692086-.468624-4.716954-.103959-.573061,.071584,.813444,.173848,1.625304,.249668,2.438386,.341669,3.66401,.534062,7.34236,.577141,11.022005,.043074,3.679233-.063076,7.360704-.319848,11.03124-.113971,1.629206-.257586,3.256593-.431114,4.880533-.055618,.520491-.894093,4.250244-.121797,1.230888,.76745-3.000411-.20263,1.164682-.312389,1.816905-1.209663,7.188203-3.0209,14.276054-5.463406,21.145087-.319171,.897602-1.18176,4.61434-1.934142,5.071882,.12668-.077037,1.832852-4.106387,.411904-1.014586-.334612,.728072-.65955,1.46002-1.001577,2.184659-1.619582,3.431346-3.410961,6.780516-5.378532,10.025001-.929549,1.532808-1.89704,3.042076-2.903852,4.525304-.604997,.891277-1.795127,3.560588-2.776347,3.886906l1.380856-1.779665c-.369035,.469826-.743698,.935101-1.123991,1.395824-.504885,.616697-1.017012,1.227007-1.536815,1.831185-1.301863,1.513183-2.649237,2.985269-4.042635,4.414553-2.393011,2.45464-4.960664,4.670576-7.530328,6.931179-3.024508,2.660742,2.386875-1.656104,.052835-.005129-.785538,.555648-1.551427,1.139701-2.339039,1.693184-2.160723,1.518414-4.377654,2.954793-6.641424,4.314753-3.500009,2.10263-7.109398,4.019459-10.786702,5.792412-1.905918,.918908-3.908997,2.040796-5.915667,2.70856,.577244-.192091,3.489534-1.412221,.327672-.140636-1.347473,.541905-2.694314,1.084326-4.049135,1.607851-8.143856,3.146918-16.450136,5.849417-24.760262,8.517596-11.461359,3.679964-22.985317,7.15883-34.551844,10.493-52.985453,15.273598-106.709555,28.23499-160.711391,39.371348-23.190096,4.782304-46.474835,9.246814-69.90862,12.670709-1.072832,.156751-2.146019,.311095-3.219629,.462426-.770582,.108618-5.411017,.741048-1.492735,.21284,3.841427-.517847-.45766,.054355-1.36369,.169018-1.210729,.153225-2.422015,.302105-3.633951,.445479-3.944812,.466678-7.896574,.881792-11.856336,1.199738-5.75097,.461769-11.469393,.675329-17.229129,.334803-3.479003-.205685,5.935275,1.333466,1.759215,.209643-.698536-.187984-1.383831-.338112-2.059205-.606099-8.845749-3.509981-20.309566,3.833793-22.323253,12.674745-2.383235,10.463431,3.202726,18.56477,12.674745,22.323253Z"/>
</svg>