<?xml version="1.0" encoding="UTF-8"?>
<svg id="Layer_1" data-name="Layer 1" xmlns="http://www.w3.org/2000/svg" viewBox="0 0 1264.81488 847.686966">
  <defs>
    <style>
      .cls-1 {
        fill: #a5afa0;
      }
    </style>
  </defs>
  <path class="cls-1" d="M195.044854,164.475944c.219848,6.561202,14.278182,273.427191,14.278182,273.427191,0,0,296.272282,56.39882,299.841828,54.971002,3.569546-1.427818,17.847728,350.529375,17.847728,350.529375l-113.511549,4.283455-16.41991-277.710645-281.9941-38.551092-30.698092-356.954557s105.388334-9.443565,110.655913-9.994728ZM305.700767,9.994728l30.698092,356.954557,281.9941,38.551092,16.41991,277.710645,113.511549-4.283455s-14.278182-351.957193-17.847728-350.529375c-3.569546,1.427818-299.841828-54.971002-299.841828-54.971002,0,0-14.058334-266.865989-14.278182-273.427191-5.267579,.551163-110.655913,9.994728-110.655913,9.994728Z"/>
</svg>