<?xml version="1.0" encoding="UTF-8"?>
<svg id="Layer_1" data-name="Layer 1" xmlns="http://www.w3.org/2000/svg" viewBox="0 0 1288.309326 832.713359">
  <defs>
    <style>
      .cls-1 {
        fill: none;
        stroke: #000;
        stroke-miterlimit: 10;
        stroke-width: 1.552083px;
      }
    </style>
  </defs>
  <path class="cls-1" d="M46.948447,231.638069v46.172406H.776041v-46.172406H46.948447ZM.776041,185.465664v46.172406H46.948447v-46.172406H.776041Zm0-46.172406v46.172406H46.948447v-46.172406H.776041Zm0-46.172406v46.172406H46.948447v-46.172406H.776041ZM.776041,46.948447v46.172406H46.948447V46.948447H.776041ZM.776041,.776041V46.948447H46.948447V.776041H.776041ZM46.948447,231.638069v46.172406h46.172406v-46.172406H46.948447Zm0-46.172406v46.172406h46.172406v-46.172406H46.948447Zm0-46.172406v46.172406h46.172406v-46.172406H46.948447Zm0-46.172406v46.172406h46.172406v-46.172406H46.948447Zm0-46.172406v46.172406h46.172406V46.948447H46.948447ZM46.948447,.776041V46.948447h46.172406V.776041H46.948447Zm46.172406,230.862028v46.172406h46.172406v-46.172406h-46.172406Zm0-46.172406v46.172406h46.172406v-46.172406h-46.172406Zm0-46.172406v46.172406h46.172406v-46.172406h-46.172406Zm0-46.172406v46.172406h46.172406v-46.172406h-46.172406Zm0-46.172406v46.172406h46.172406V46.948447h-46.172406Zm0-46.172406V46.948447h46.172406V.776041h-46.172406Zm46.172406,230.862028v46.172406h46.172406v-46.172406h-46.172406Zm0-46.172406v46.172406h46.172406v-46.172406h-46.172406Zm0-46.172406v46.172406h46.172406v-46.172406h-46.172406Zm0-46.172406v46.172406h46.172406v-46.172406h-46.172406Zm0-46.172406v46.172406h46.172406V46.948447h-46.172406Zm0-46.172406V46.948447h46.172406V.776041h-46.172406Zm46.172406,230.862028v46.172406h46.172406v-46.172406h-46.172406Zm0-46.172406v46.172406h46.172406v-46.172406h-46.172406Zm0-46.172406v46.172406h46.172406v-46.172406h-46.172406Zm0-46.172406v46.172406h46.172406v-46.172406h-46.172406Zm0-46.172406v46.172406h46.172406V46.948447h-46.172406Zm0-46.172406V46.948447h46.172406V.776041h-46.172406Zm46.172406,230.862028v46.172406h46.172406v-46.172406h-46.172406Zm0-46.172406v46.172406h46.172406v-46.172406h-46.172406Zm0-46.172406v46.172406h46.172406v-46.172406h-46.172406Zm0-46.172406v46.172406h46.172406v-46.172406h-46.172406Zm0-46.172406v46.172406h46.172406V46.948447h-46.172406Zm0-46.172406V46.948447h46.172406V.776041h-46.172406Z"/>
  <path class="cls-1" d="M323.98288,231.638069v46.172406h-46.172406v-46.172406h46.172406Zm-46.172406-46.172406v46.172406h46.172406v-46.172406h-46.172406Zm0-46.172406v46.172406h46.172406v-46.172406h-46.172406Zm0-46.172406v46.172406h46.172406v-46.172406h-46.172406Zm0-46.172406v46.172406h46.172406V46.948447h-46.172406Zm0-46.172406V46.948447h46.172406V.776041h-46.172406Zm46.172406,230.862028v46.172406h46.172406v-46.172406h-46.172406Zm0-46.172406v46.172406h46.172406v-46.172406h-46.172406Zm0-46.172406v46.172406h46.172406v-46.172406h-46.172406Zm0-46.172406v46.172406h46.172406v-46.172406h-46.172406Zm0-46.172406v46.172406h46.172406V46.948447h-46.172406Zm0-46.172406V46.948447h46.172406V.776041h-46.172406Zm46.172406,230.862028v46.172406h46.172406v-46.172406h-46.172406Zm0-46.172406v46.172406h46.172406v-46.172406h-46.172406Zm0-46.172406v46.172406h46.172406v-46.172406h-46.172406Zm0-46.172406v46.172406h46.172406v-46.172406h-46.172406Zm0-46.172406v46.172406h46.172406V46.948447h-46.172406Zm0-46.172406V46.948447h46.172406V.776041h-46.172406Zm46.172406,230.862028v46.172406h46.172406v-46.172406h-46.172406Zm0-46.172406v46.172406h46.172406v-46.172406h-46.172406Zm0-46.172406v46.172406h46.172406v-46.172406h-46.172406Zm0-46.172406v46.172406h46.172406v-46.172406h-46.172406Zm0-46.172406v46.172406h46.172406V46.948447h-46.172406Zm0-46.172406V46.948447h46.172406V.776041h-46.172406Zm46.172406,230.862028v46.172406h46.172406v-46.172406h-46.172406Zm0-46.172406v46.172406h46.172406v-46.172406h-46.172406Zm0-46.172406v46.172406h46.172406v-46.172406h-46.172406Zm0-46.172406v46.172406h46.172406v-46.172406h-46.172406Zm0-46.172406v46.172406h46.172406V46.948447h-46.172406Zm0-46.172406V46.948447h46.172406V.776041h-46.172406Zm46.172406,230.862028v46.172406h46.172406v-46.172406h-46.172406Zm0-46.172406v46.172406h46.172406v-46.172406h-46.172406Zm0-46.172406v46.172406h46.172406v-46.172406h-46.172406Zm0-46.172406v46.172406h46.172406v-46.172406h-46.172406Zm0-46.172406v46.172406h46.172406V46.948447h-46.172406Zm0-46.172406V46.948447h46.172406V.776041h-46.172406Z"/>
  <path class="cls-1" d="M46.948447,508.672502v46.172406H.776041v-46.172406H46.948447ZM.776041,462.500097v46.172406H46.948447v-46.172406H.776041Zm0-46.172406v46.172406H46.948447v-46.172406H.776041Zm0-46.172406v46.172406H46.948447v-46.172406H.776041Zm0-46.172406v46.172406H46.948447v-46.172406H.776041Zm0-46.172406v46.172406H46.948447v-46.172406H.776041Zm46.172406,230.862028v46.172406h46.172406v-46.172406H46.948447Zm0-46.172406v46.172406h46.172406v-46.172406H46.948447Zm0-46.172406v46.172406h46.172406v-46.172406H46.948447Zm0-46.172406v46.172406h46.172406v-46.172406H46.948447Zm0-46.172406v46.172406h46.172406v-46.172406H46.948447Zm0-46.172406v46.172406h46.172406v-46.172406H46.948447Zm46.172406,230.862028v46.172406h46.172406v-46.172406h-46.172406Zm0-46.172406v46.172406h46.172406v-46.172406h-46.172406Zm0-46.172406v46.172406h46.172406v-46.172406h-46.172406Zm0-46.172406v46.172406h46.172406v-46.172406h-46.172406Zm0-46.172406v46.172406h46.172406v-46.172406h-46.172406Zm0-46.172406v46.172406h46.172406v-46.172406h-46.172406Zm46.172406,230.862028v46.172406h46.172406v-46.172406h-46.172406Zm0-46.172406v46.172406h46.172406v-46.172406h-46.172406Zm0-46.172406v46.172406h46.172406v-46.172406h-46.172406Zm0-46.172406v46.172406h46.172406v-46.172406h-46.172406Zm0-46.172406v46.172406h46.172406v-46.172406h-46.172406Zm0-46.172406v46.172406h46.172406v-46.172406h-46.172406Zm46.172406,230.862028v46.172406h46.172406v-46.172406h-46.172406Zm0-46.172406v46.172406h46.172406v-46.172406h-46.172406Zm0-46.172406v46.172406h46.172406v-46.172406h-46.172406Zm0-46.172406v46.172406h46.172406v-46.172406h-46.172406Zm0-46.172406v46.172406h46.172406v-46.172406h-46.172406Zm0-46.172406v46.172406h46.172406v-46.172406h-46.172406Zm46.172406,230.862028v46.172406h46.172406v-46.172406h-46.172406Zm0-46.172406v46.172406h46.172406v-46.172406h-46.172406Zm0-46.172406v46.172406h46.172406v-46.172406h-46.172406Zm0-46.172406v46.172406h46.172406v-46.172406h-46.172406Zm0-46.172406v46.172406h46.172406v-46.172406h-46.172406Zm0-46.172406v46.172406h46.172406v-46.172406h-46.172406Z"/>
  <path class="cls-1" d="M323.98288,508.672502v46.172406h-46.172406v-46.172406h46.172406Zm-46.172406-46.172406v46.172406h46.172406v-46.172406h-46.172406Zm0-46.172406v46.172406h46.172406v-46.172406h-46.172406Zm0-46.172406v46.172406h46.172406v-46.172406h-46.172406Zm0-46.172406v46.172406h46.172406v-46.172406h-46.172406Zm0-46.172406v46.172406h46.172406v-46.172406h-46.172406Zm46.172406,230.862028v46.172406h46.172406v-46.172406h-46.172406Zm0-46.172406v46.172406h46.172406v-46.172406h-46.172406Zm0-46.172406v46.172406h46.172406v-46.172406h-46.172406Zm0-46.172406v46.172406h46.172406v-46.172406h-46.172406Zm0-46.172406v46.172406h46.172406v-46.172406h-46.172406Zm0-46.172406v46.172406h46.172406v-46.172406h-46.172406Zm46.172406,230.862028v46.172406h46.172406v-46.172406h-46.172406Zm0-46.172406v46.172406h46.172406v-46.172406h-46.172406Zm0-46.172406v46.172406h46.172406v-46.172406h-46.172406Zm0-46.172406v46.172406h46.172406v-46.172406h-46.172406Zm0-46.172406v46.172406h46.172406v-46.172406h-46.172406Zm0-46.172406v46.172406h46.172406v-46.172406h-46.172406Zm46.172406,230.862028v46.172406h46.172406v-46.172406h-46.172406Zm0-46.172406v46.172406h46.172406v-46.172406h-46.172406Zm0-46.172406v46.172406h46.172406v-46.172406h-46.172406Zm0-46.172406v46.172406h46.172406v-46.172406h-46.172406Zm0-46.172406v46.172406h46.172406v-46.172406h-46.172406Zm0-46.172406v46.172406h46.172406v-46.172406h-46.172406Zm46.172406,230.862028v46.172406h46.172406v-46.172406h-46.172406Zm0-46.172406v46.172406h46.172406v-46.172406h-46.172406Zm0-46.172406v46.172406h46.172406v-46.172406h-46.172406Zm0-46.172406v46.172406h46.172406v-46.172406h-46.172406Zm0-46.172406v46.172406h46.172406v-46.172406h-46.172406Zm0-46.172406v46.172406h46.172406v-46.172406h-46.172406Zm46.172406,230.862028v46.172406h46.172406v-46.172406h-46.172406Zm0-46.172406v46.172406h46.172406v-46.172406h-46.172406Zm0-46.172406v46.172406h46.172406v-46.172406h-46.172406Zm0-46.172406v46.172406h46.172406v-46.172406h-46.172406Zm0-46.172406v46.172406h46.172406v-46.172406h-46.172406Zm0-46.172406v46.172406h46.172406v-46.172406h-46.172406Z"/>
  <path class="cls-1" d="M46.948447,785.706936v46.172406H.776041v-46.172406H46.948447ZM.776041,739.53453v46.172406H46.948447v-46.172406H.776041Zm0-46.172406v46.172406H46.948447v-46.172406H.776041Zm0-46.172406v46.172406H46.948447v-46.172406H.776041Zm0-46.172406v46.172406H46.948447v-46.172406H.776041Zm0-46.172406v46.172406H46.948447v-46.172406H.776041Zm46.172406,230.862028v46.172406h46.172406v-46.172406H46.948447Zm0-46.172406v46.172406h46.172406v-46.172406H46.948447Zm0-46.172406v46.172406h46.172406v-46.172406H46.948447Zm0-46.172406v46.172406h46.172406v-46.172406H46.948447Zm0-46.172406v46.172406h46.172406v-46.172406H46.948447Zm0-46.172406v46.172406h46.172406v-46.172406H46.948447Zm46.172406,230.862028v46.172406h46.172406v-46.172406h-46.172406Zm0-46.172406v46.172406h46.172406v-46.172406h-46.172406Zm0-46.172406v46.172406h46.172406v-46.172406h-46.172406Zm0-46.172406v46.172406h46.172406v-46.172406h-46.172406Zm0-46.172406v46.172406h46.172406v-46.172406h-46.172406Zm0-46.172406v46.172406h46.172406v-46.172406h-46.172406Zm46.172406,230.862028v46.172406h46.172406v-46.172406h-46.172406Zm0-46.172406v46.172406h46.172406v-46.172406h-46.172406Zm0-46.172406v46.172406h46.172406v-46.172406h-46.172406Zm0-46.172406v46.172406h46.172406v-46.172406h-46.172406Zm0-46.172406v46.172406h46.172406v-46.172406h-46.172406Zm0-46.172406v46.172406h46.172406v-46.172406h-46.172406Zm46.172406,230.862028v46.172406h46.172406v-46.172406h-46.172406Zm0-46.172406v46.172406h46.172406v-46.172406h-46.172406Zm0-46.172406v46.172406h46.172406v-46.172406h-46.172406Zm0-46.172406v46.172406h46.172406v-46.172406h-46.172406Zm0-46.172406v46.172406h46.172406v-46.172406h-46.172406Zm0-46.172406v46.172406h46.172406v-46.172406h-46.172406Zm46.172406,230.862028v46.172406h46.172406v-46.172406h-46.172406Zm0-46.172406v46.172406h46.172406v-46.172406h-46.172406Zm0-46.172406v46.172406h46.172406v-46.172406h-46.172406Zm0-46.172406v46.172406h46.172406v-46.172406h-46.172406Zm0-46.172406v46.172406h46.172406v-46.172406h-46.172406Zm0-46.172406v46.172406h46.172406v-46.172406h-46.172406Z"/>
  <path class="cls-1" d="M323.98288,785.706936v46.172406h-46.172406v-46.172406h46.172406Zm-46.172406-46.172406v46.172406h46.172406v-46.172406h-46.172406Zm0-46.172406v46.172406h46.172406v-46.172406h-46.172406Zm0-46.172406v46.172406h46.172406v-46.172406h-46.172406Zm0-46.172406v46.172406h46.172406v-46.172406h-46.172406Zm0-46.172406v46.172406h46.172406v-46.172406h-46.172406Zm46.172406,230.862028v46.172406h46.172406v-46.172406h-46.172406Zm0-46.172406v46.172406h46.172406v-46.172406h-46.172406Zm0-46.172406v46.172406h46.172406v-46.172406h-46.172406Zm0-46.172406v46.172406h46.172406v-46.172406h-46.172406Zm0-46.172406v46.172406h46.172406v-46.172406h-46.172406Zm0-46.172406v46.172406h46.172406v-46.172406h-46.172406Zm46.172406,230.862028v46.172406h46.172406v-46.172406h-46.172406Zm0-46.172406v46.172406h46.172406v-46.172406h-46.172406Zm0-46.172406v46.172406h46.172406v-46.172406h-46.172406Zm0-46.172406v46.172406h46.172406v-46.172406h-46.172406Zm0-46.172406v46.172406h46.172406v-46.172406h-46.172406Zm0-46.172406v46.172406h46.172406v-46.172406h-46.172406Zm46.172406,230.862028v46.172406h46.172406v-46.172406h-46.172406Zm0-46.172406v46.172406h46.172406v-46.172406h-46.172406Zm0-46.172406v46.172406h46.172406v-46.172406h-46.172406Zm0-46.172406v46.172406h46.172406v-46.172406h-46.172406Zm0-46.172406v46.172406h46.172406v-46.172406h-46.172406Zm0-46.172406v46.172406h46.172406v-46.172406h-46.172406Zm46.172406,230.862028v46.172406h46.172406v-46.172406h-46.172406Zm0-46.172406v46.172406h46.172406v-46.172406h-46.172406Zm0-46.172406v46.172406h46.172406v-46.172406h-46.172406Zm0-46.172406v46.172406h46.172406v-46.172406h-46.172406Zm0-46.172406v46.172406h46.172406v-46.172406h-46.172406Zm0-46.172406v46.172406h46.172406v-46.172406h-46.172406Zm46.172406,230.862028v46.172406h46.172406v-46.172406h-46.172406Zm0-46.172406v46.172406h46.172406v-46.172406h-46.172406Zm0-46.172406v46.172406h46.172406v-46.172406h-46.172406Zm0-46.172406v46.172406h46.172406v-46.172406h-46.172406Zm0-46.172406v46.172406h46.172406v-46.172406h-46.172406Zm0-46.172406v46.172406h46.172406v-46.172406h-46.172406Z"/>
  <path class="cls-1" d="M601.07529,231.696046v46.172406h-46.172406v-46.172406h46.172406Zm-46.172406-46.172406v46.172406h46.172406v-46.172406h-46.172406Zm0-46.172406v46.172406h46.172406v-46.172406h-46.172406Zm0-46.172406v46.172406h46.172406v-46.172406h-46.172406Zm0-46.172406v46.172406h46.172406V47.006424h-46.172406Zm0-46.172406V47.006424h46.172406V.834018h-46.172406Zm46.172406,230.862028v46.172406h46.172406v-46.172406h-46.172406Zm0-46.172406v46.172406h46.172406v-46.172406h-46.172406Zm0-46.172406v46.172406h46.172406v-46.172406h-46.172406Zm0-46.172406v46.172406h46.172406v-46.172406h-46.172406Zm0-46.172406v46.172406h46.172406V47.006424h-46.172406Zm0-46.172406V47.006424h46.172406V.834018h-46.172406Zm46.172406,230.862028v46.172406h46.172406v-46.172406h-46.172406Zm0-46.172406v46.172406h46.172406v-46.172406h-46.172406Zm0-46.172406v46.172406h46.172406v-46.172406h-46.172406Zm0-46.172406v46.172406h46.172406v-46.172406h-46.172406Zm0-46.172406v46.172406h46.172406V47.006424h-46.172406Zm0-46.172406V47.006424h46.172406V.834018h-46.172406Zm46.172406,230.862028v46.172406h46.172406v-46.172406h-46.172406Zm0-46.172406v46.172406h46.172406v-46.172406h-46.172406Zm0-46.172406v46.172406h46.172406v-46.172406h-46.172406Zm0-46.172406v46.172406h46.172406v-46.172406h-46.172406Zm0-46.172406v46.172406h46.172406V47.006424h-46.172406Zm0-46.172406V47.006424h46.172406V.834018h-46.172406Zm46.172406,230.862028v46.172406h46.172406v-46.172406h-46.172406Zm0-46.172406v46.172406h46.172406v-46.172406h-46.172406Zm0-46.172406v46.172406h46.172406v-46.172406h-46.172406Zm0-46.172406v46.172406h46.172406v-46.172406h-46.172406Zm0-46.172406v46.172406h46.172406V47.006424h-46.172406Zm0-46.172406V47.006424h46.172406V.834018h-46.172406Zm46.172406,230.862028v46.172406h46.172406v-46.172406h-46.172406Zm0-46.172406v46.172406h46.172406v-46.172406h-46.172406Zm0-46.172406v46.172406h46.172406v-46.172406h-46.172406Zm0-46.172406v46.172406h46.172406v-46.172406h-46.172406Zm0-46.172406v46.172406h46.172406V47.006424h-46.172406Zm0-46.172406V47.006424h46.172406V.834018h-46.172406Z"/>
  <path class="cls-1" d="M601.07529,508.730479v46.172406h-46.172406v-46.172406h46.172406Zm-46.172406-46.172406v46.172406h46.172406v-46.172406h-46.172406Zm0-46.172406v46.172406h46.172406v-46.172406h-46.172406Zm0-46.172406v46.172406h46.172406v-46.172406h-46.172406Zm0-46.172406v46.172406h46.172406v-46.172406h-46.172406Zm0-46.172406v46.172406h46.172406v-46.172406h-46.172406Zm46.172406,230.862028v46.172406h46.172406v-46.172406h-46.172406Zm0-46.172406v46.172406h46.172406v-46.172406h-46.172406Zm0-46.172406v46.172406h46.172406v-46.172406h-46.172406Zm0-46.172406v46.172406h46.172406v-46.172406h-46.172406Zm0-46.172406v46.172406h46.172406v-46.172406h-46.172406Zm0-46.172406v46.172406h46.172406v-46.172406h-46.172406Zm46.172406,230.862028v46.172406h46.172406v-46.172406h-46.172406Zm0-46.172406v46.172406h46.172406v-46.172406h-46.172406Zm0-46.172406v46.172406h46.172406v-46.172406h-46.172406Zm0-46.172406v46.172406h46.172406v-46.172406h-46.172406Zm0-46.172406v46.172406h46.172406v-46.172406h-46.172406Zm0-46.172406v46.172406h46.172406v-46.172406h-46.172406Zm46.172406,230.862028v46.172406h46.172406v-46.172406h-46.172406Zm0-46.172406v46.172406h46.172406v-46.172406h-46.172406Zm0-46.172406v46.172406h46.172406v-46.172406h-46.172406Zm0-46.172406v46.172406h46.172406v-46.172406h-46.172406Zm0-46.172406v46.172406h46.172406v-46.172406h-46.172406Zm0-46.172406v46.172406h46.172406v-46.172406h-46.172406Zm46.172406,230.862028v46.172406h46.172406v-46.172406h-46.172406Zm0-46.172406v46.172406h46.172406v-46.172406h-46.172406Zm0-46.172406v46.172406h46.172406v-46.172406h-46.172406Zm0-46.172406v46.172406h46.172406v-46.172406h-46.172406Zm0-46.172406v46.172406h46.172406v-46.172406h-46.172406Zm0-46.172406v46.172406h46.172406v-46.172406h-46.172406Zm46.172406,230.862028v46.172406h46.172406v-46.172406h-46.172406Zm0-46.172406v46.172406h46.172406v-46.172406h-46.172406Zm0-46.172406v46.172406h46.172406v-46.172406h-46.172406Zm0-46.172406v46.172406h46.172406v-46.172406h-46.172406Zm0-46.172406v46.172406h46.172406v-46.172406h-46.172406Zm0-46.172406v46.172406h46.172406v-46.172406h-46.172406Z"/>
  <path class="cls-1" d="M601.07529,785.764913v46.172406h-46.172406v-46.172406h46.172406Zm-46.172406-46.172406v46.172406h46.172406v-46.172406h-46.172406Zm0-46.172406v46.172406h46.172406v-46.172406h-46.172406Zm0-46.172406v46.172406h46.172406v-46.172406h-46.172406Zm0-46.172406v46.172406h46.172406v-46.172406h-46.172406Zm0-46.172406v46.172406h46.172406v-46.172406h-46.172406Zm46.172406,230.862028v46.172406h46.172406v-46.172406h-46.172406Zm0-46.172406v46.172406h46.172406v-46.172406h-46.172406Zm0-46.172406v46.172406h46.172406v-46.172406h-46.172406Zm0-46.172406v46.172406h46.172406v-46.172406h-46.172406Zm0-46.172406v46.172406h46.172406v-46.172406h-46.172406Zm0-46.172406v46.172406h46.172406v-46.172406h-46.172406Zm46.172406,230.862028v46.172406h46.172406v-46.172406h-46.172406Zm0-46.172406v46.172406h46.172406v-46.172406h-46.172406Zm0-46.172406v46.172406h46.172406v-46.172406h-46.172406Zm0-46.172406v46.172406h46.172406v-46.172406h-46.172406Zm0-46.172406v46.172406h46.172406v-46.172406h-46.172406Zm0-46.172406v46.172406h46.172406v-46.172406h-46.172406Zm46.172406,230.862028v46.172406h46.172406v-46.172406h-46.172406Zm0-46.172406v46.172406h46.172406v-46.172406h-46.172406Zm0-46.172406v46.172406h46.172406v-46.172406h-46.172406Zm0-46.172406v46.172406h46.172406v-46.172406h-46.172406Zm0-46.172406v46.172406h46.172406v-46.172406h-46.172406Zm0-46.172406v46.172406h46.172406v-46.172406h-46.172406Zm46.172406,230.862028v46.172406h46.172406v-46.172406h-46.172406Zm0-46.172406v46.172406h46.172406v-46.172406h-46.172406Zm0-46.172406v46.172406h46.172406v-46.172406h-46.172406Zm0-46.172406v46.172406h46.172406v-46.172406h-46.172406Zm0-46.172406v46.172406h46.172406v-46.172406h-46.172406Zm0-46.172406v46.172406h46.172406v-46.172406h-46.172406Zm46.172406,230.862028v46.172406h46.172406v-46.172406h-46.172406Zm0-46.172406v46.172406h46.172406v-46.172406h-46.172406Zm0-46.172406v46.172406h46.172406v-46.172406h-46.172406Zm0-46.172406v46.172406h46.172406v-46.172406h-46.172406Zm0-46.172406v46.172406h46.172406v-46.172406h-46.172406Zm0-46.172406v46.172406h46.172406v-46.172406h-46.172406Z"/>
</svg>