<?xml version="1.0" encoding="UTF-8"?>
<svg id="Layer_1" data-name="Layer 1" xmlns="http://www.w3.org/2000/svg" viewBox="0 0 893.097 836.504">
  <path d="M0,509.945V247.092H44.624v164.131l58.378-57.767h57.766l-76.105,76.411,79.62,80.078h-57.308l-62.351-62.962v62.962H0Zm166.274-156.489l49.056,95.208,42.79-95.208h51.348l-118.589,235.956h-51.043l49.514-97.653-74.271-138.303h51.196Zm199.128-4.89c51.653,0,91.388,34.079,91.388,83.135s-39.734,83.134-91.388,83.134-91.388-34.079-91.388-83.134,39.734-83.135,91.388-83.135Zm0,128.065c25.368,0,44.777-18.644,44.777-44.93s-19.408-44.929-44.777-44.929-44.777,18.644-44.777,44.929,19.408,44.93,44.777,44.93Zm162.908-128.065c51.653,0,91.387,34.079,91.387,83.135s-39.734,83.134-91.387,83.134-91.387-34.079-91.387-83.134,39.734-83.135,91.387-83.135Zm0,128.065c25.368,0,44.776-18.644,44.776-44.93s-19.408-44.929-44.776-44.929-44.777,18.644-44.777,44.929,19.408,44.93,44.777,44.93Zm127.606-229.539v128.064c13.753-17.116,33.009-26.591,55.473-26.591,45.236,0,77.633,35.913,77.633,82.982s-32.398,83.287-77.633,83.287c-22.464,0-41.72-9.474-55.473-26.59v21.7h-44.624V247.092h44.624Zm-1.07,184.609c0,26.286,18.186,45.083,43.554,45.083,25.216,0,43.708-18.797,43.708-45.083s-18.492-45.082-43.708-45.082c-25.368,0-43.554,18.797-43.554,45.082Zm130.206,33.315c11.614,11.31,25.98,16.811,38.97,16.811,12.531,0,22.464-5.501,22.464-16.658,0-10.545-10.545-15.74-28.119-22.312-20.172-7.489-47.375-18.492-47.375-46.916,0-26.744,24.147-47.222,60.824-47.222,19.408,0,37.747,6.113,52.265,17.575l-16.047,23.84c-9.628-7.489-21.7-11.156-33.162-11.156-13.906,0-21.548,6.113-21.548,14.518,0,9.628,10.392,14.671,30.564,22.007,30.411,11.002,49.209,25.215,49.209,50.737,0,31.023-24.911,48.596-64.797,48.596-25.368,0-45.998-7.487-62.656-25.215l19.408-24.605Zm-217.095-175.128h-255.226v17.708h255.226v-17.708Z" fill="#0a0a0a"/>
</svg>