<?xml version="1.0" encoding="UTF-8"?>
<svg id="Layer_2" data-name="Layer 2" xmlns="http://www.w3.org/2000/svg" viewBox="0 0 1080 1080">
  <path d="M287.767,668.075c-.54,1.469-1.03,2.959-1.629,4.403-4.143,9.975-13.576,14.459-22.084,13.794-10.203-.798-18.252-7.963-20.256-17.712-1.957-9.52,2.609-19.218,11.298-23.958,1.365-.745,2.767-1.422,4.03-2.069,.654-6.587,.487-24.73-.243-28.47-1.59-.989-3.385-.566-5.093-.572-11.207-.041-22.415-.007-33.623-.037-1.72-.005-3.5,.335-5.384-.636-.122-.697-.365-1.525-.4-2.362-.589-14.077-.18-189.831,.454-194.446,1.472-1.109,3.28-.644,4.963-.649,12.608-.039,25.217-.021,37.826-.021,1.746,0,3.491,0,5.171,0,1.897-3.231,1.895-6.628,1.894-10.06-.018-64.619-.013-129.238-.013-193.856,0-1.915,0-3.829,0-5.651,1.83-.836,2.417,.588,3.202,1.363,10.594,10.456,21.148,20.952,31.735,31.415,1.334,1.318,2.505,2.88,4.56,3.722,.834-1.717,1.616-3.267,2.346-4.841,25.896-55.835,75.235-96.143,135.162-110.404,15.752-3.749,31.763-5.233,47.918-5.255,31.872-.044,63.743,.016,95.615-.023,29.281-.036,57.401,5.424,84.177,17.461,57.637,25.912,99.956,78.219,112.995,139.737,2.255,10.639,3.478,21.414,4.206,32.256,.115,1.72,.42,3.467,.929,5.111,.86,2.781,.802,5.488,.101,8.275-.423,1.678-.835,3.416-.852,5.131-.085,8.58-.043,17.161-.029,25.742,.001,.67,.131,1.34,.199,1.993,1.528,.189,1.809-1.004,2.322-1.806,4.907-7.668,9.777-15.359,14.671-23.035,.846-1.327,1.658-2.695,2.655-3.905,3.964-4.811,10.425-5.824,15.586-2.521,5.099,3.263,6.906,9.644,4.229,15.221-.678,1.413-1.595,2.714-2.44,4.043-11.356,17.882-22.647,35.806-34.142,53.598-2.19,3.389-3.569,6.709-3.121,10.755,.171,1.542,.028,3.118,.028,4.448,1.841,1.558,3.662,1.059,5.346,1.063,15.761,.037,31.521,.022,47.282,.022,6.83,0,13.659,0,20.489,0h5.43c.236,1.271,.502,2.244,.578,3.231,.094,1.219,.032,2.45,.032,3.676,0,61.467,.002,122.933-.007,184.4,0,2.062-.108,4.124-.175,6.516-2.029,.115-3.728,.291-5.427,.294-12.784,.024-25.567,.008-38.351,.019-1.898,.002-3.796,.078-5.841,.123-.275,.905-.63,1.535-.633,2.167-.037,8.751-.025,17.503-.025,26.499,1.695,.885,3.434,1.668,5.048,2.655,7.699,4.709,11.639,11.684,11.031,20.627-.638,9.386-5.652,16.064-14.552,19.409-10.803,4.06-22.938-1.103-27.734-11.627-.651-1.428-1.112-2.943-1.731-4.605-1.147,.643-.715,1.792-.721,2.629-.056,8.405-.039,16.811-.04,25.217-.001,16.286,.028,32.572-.006,48.858-.12,58.441-41.315,108.935-98.486,120.708-2.91,.599-5.877,.919-8.806,1.433-1.169,.205-2.308,.586-3.561,.912-.462,2.411-.92,4.625-1.308,6.85-7.307,41.942-40.737,75.014-82.659,81.571-5.339,.835-10.795,1.28-16.198,1.289-57.614,.09-115.228,.07-172.842,.017-3.125-.003-6.357-.164-9.356-.95-11.395-2.987-19.651-12.648-20.268-24.684-.527-10.292-.736-20.652,.34-30.958,1.195-11.443,5.529-21.621,12.471-30.738,.844-1.108,1.664-2.235,2.473-3.369,.083-.116,.011-.342,.011-.803-1.394-.387-2.85-.85-4.334-1.196-46.804-10.897-82.891-47.347-93.078-94.089-1.87-8.58-2.705-17.274-2.685-26.068,.055-23.816,.018-47.632,.018-71.448v-5.772c-.229-.019-.457-.037-.686-.056Zm232.8-276.106c.365-1.142,.644-1.607,.643-2.072-.014-54.091-.048-108.181-.105-162.272,0-.259-.347-.517-.719-1.039-.908,.345-1.592,1.088-2.298,1.799-3.577,3.602-7.163,7.196-10.732,10.806-15.63,15.81-31.251,31.629-46.896,47.424-.918,.927-2.016,1.676-3.167,2.621-.948-1.522-1.719-2.685-2.416-3.89-6.306-10.908-12.598-21.823-18.894-32.736-11.893-20.614-23.781-41.231-35.694-61.834-.815-1.409-1.35-3.096-3.193-4.199-4.973,8.785-9.798,17.294-14.608,25.812-4.819,8.533-9.623,17.073-14.432,25.611-4.808,8.538-9.577,17.099-14.43,25.612-4.838,8.485-9.476,17.089-14.674,25.796-1.475-1.316-2.664-2.285-3.749-3.359-10.452-10.343-20.884-20.707-31.328-31.058-9.2-9.119-18.402-18.237-27.627-27.331-.675-.665-1.232-1.806-2.548-1.224-.474,3.466-.855,154.166-.381,161.108,.031,.46,.351,.901,.67,1.674,1.113-.822,2.076-1.479,2.978-2.21,5.436-4.408,10.699-9.05,16.315-13.214,19.007-14.091,39.715-24.845,62.607-31.162,19.281-5.321,38.859-7.087,58.741-4.598,16.442,2.059,32.156,6.725,47.2,13.658,19.232,8.863,36.448,20.773,52.351,34.664,1.971,1.722,3.931,3.456,6.384,5.614Zm11.385,21.728c-4.937,3.308-9.876,5.922-14.952,8.217-3.331,1.506-5.682,3.694-7.671,6.766-21.208,32.756-42.536,65.434-63.826,98.137-17.185,26.397-34.368,52.795-51.529,79.207-.998,1.536-2.317,2.957-2.704,4.794,5.145,2.498,168.106,56.857,196.851,65.706,.79,.243,1.612,.379,2.716,.633,.361-2.768-.478-5.111-.913-7.436-4.341-23.208-8.783-46.396-13.175-69.594-5.888-31.102-11.829-62.195-17.543-93.329-.71-3.871-2.141-11.274-2.861-14.505-.632-3.525-1.234-6.966-1.873-10.4-.288-1.547-.363-2.261-1.052-4.583-.494-2.003-1.253-8.023-1.903-10.91-.218-.655-.204-1.383-.334-2.07-2.431-12.889-4.869-25.777-7.304-38.666-2.111-11.17-4.219-22.341-6.334-33.51-.13-.687-.248-1.39-.503-2.034-.217-.546-.057-1.482-1.434-1.388-1.957,3.013-5.284,5.675-5.367,9.664-.103,4.936-1.405,10.108,1.711,15.3Zm120.756,432.869c-.778-6.145-2.782-11.193-4.988-16.128-10.044-22.465-26.012-39.675-47.02-52.265-20.45-12.255-42.876-17.853-66.501-18.785-11.015-.435-22.061-.075-33.093-.074-26.446,0-52.894,.156-79.339-.057-16.254-.131-27.494,12.926-26.881,26.771,.255,5.768,.024,11.558,.046,17.337,.094,25.376,21.642,43.553,43.523,43.482,69.706-.227,139.413-.082,209.12-.091,1.544,0,3.088-.111,5.134-.189Zm.476,22.487c-2.193-.717-4.305-.436-6.375-.437-69.672-.015-139.343-.013-209.015-.012-1.225,0-2.452-.035-3.676,.015-24.037,.993-39.352,20.514-39.195,40.003,.032,4.026,.003,8.052,.004,12.079,.001,3.151-.088,6.306,.035,9.452,.155,3.965,2.252,6.038,6.232,6.321,1.394,.099,2.8,.034,4.2,.034,56.718,.001,113.435,.02,170.153-.039,4.184-.004,8.419-.262,12.543-.937,33.459-5.472,58.834-31.118,64.916-63.278,.189-1.001,.119-2.051,.176-3.201ZM281.097,403.399c3.715-1.227,6.349-2.082,8.973-2.966,26.178-8.813,53.078-14.105,80.596-16.132,14.318-1.055,28.661-1.262,43.033-.434,16.457,.947,32.766,2.879,48.943,5.98,13.59,2.605,26.962,6.069,40.111,10.385,1.157,.38,1.154,.388,3.277-.082-.523-.578-.938-1.126-1.441-1.578-14.915-13.404-31.037-25.063-49.088-33.936-17.159-8.434-35.21-13.635-54.324-14.885-15.004-.982-29.737,.861-44.111,5.121-29.058,8.613-53.445,24.863-74.601,46.267-.349,.353-.536,.867-1.369,2.26Zm525.271,68.405c-3.026-2.98-5.289-5.34-8.215-7.028-25.125-14.495-52.007-24.113-80.567-29.071-1.104-.192-2.27-.024-3.929-.024,1.035,1.81,1.819,3.139,2.564,4.49,6.109,11.08,7.726,22.756,4.501,35.022-2.725,10.364-8.502,18.699-16.959,25.247-1.139,.882-2.901,1.277-3.246,3.534,37.146-4.245,71.974-15.106,105.851-32.17Zm-155.114,32.257c-.121-.881-.082-1.118-.174-1.191-1.093-.868-2.224-1.688-3.309-2.566-14.387-11.654-20.422-26.6-17.71-44.986,.775-5.253,2.648-10.12,5.14-14.784,.42-.786,1.458-1.571,.457-2.906-1.103,.188-2.297,.332-3.462,.6-16.426,3.775-32.129,9.571-47.384,16.706-5.942,2.78-11.273,6.283-15.881,10.925-1.942,1.957-4.157,3.662-6.019,6.33,26.861,17.99,56.121,28.384,88.341,31.87Zm-238.769-61.102c.866,.369,1.031,.508,1.18,.493,2.434-.251,4.877-.449,7.298-.798,19.601-2.82,38.748-7.493,57.448-14.022,12.555-4.384,24.815-9.459,36.699-15.426,.993-.498,2.471-.684,2.414-2.397-.417-.269-.825-.615-1.294-.821-1.439-.632-2.889-1.242-4.355-1.805-15.539-5.962-31.528-10.37-47.844-13.566-7.713-1.511-15.489-2.709-23.258-3.909-2.341-.362-4.758-.932-7.458-.18,4.573,21.941-2.28,39.322-20.829,52.433Zm378.245,11.393c-.931-.733-1.854-1.477-2.794-2.198-4.304-3.3-8.53-6.707-12.934-9.867-14.716-10.561-30.448-19.234-47.627-25.135-25.816-8.869-51.995-10.414-78.505-3.56-25.045,6.475-46.87,19.002-66.362,35.807-.453,.391-.77,.939-1.82,2.249,3.809-1.098,6.33-2.653,9.023-3.738,2.757-1.11,5.458-2.358,8.216-3.464,2.92-1.172,5.861-2.299,8.826-3.353,2.8-.995,5.633-1.902,8.47-2.787,2.837-.885,5.683-1.748,8.55-2.526,2.868-.778,5.756-1.488,8.656-2.137,2.9-.65,5.817-1.232,8.741-1.762,3.096-.561,6.203-1.076,9.318-1.518,2.943-.417,5.899-.752,8.856-1.053,2.958-.3,5.922-.577,8.89-.745,2.968-.169,5.944-.226,8.918-.268,2.974-.043,5.95-.067,8.923,.012,3.146,.084,6.29,.269,9.431,.466,2.968,.186,5.937,.39,8.896,.689,2.958,.299,5.911,.668,8.85,1.112,2.938,.444,5.862,.991,8.783,1.541,3.093,.582,6.186,1.169,9.258,1.848,2.901,.641,5.787,1.359,8.658,2.126,2.871,.766,5.724,1.602,8.567,2.466,2.843,.863,5.68,1.755,8.492,2.713,2.813,.958,5.611,1.967,8.382,3.041,2.934,1.137,5.842,2.344,8.737,3.579,2.734,1.166,5.425,2.432,8.156,3.607,2.656,1.143,5.097,2.822,8.446,2.858Zm-514.513-43.092c5.696,6.067,28.488,17.62,46.459,23.581,15.658,5.193,35.914,9.197,41.856,8.147-.842-.66-1.489-1.196-2.166-1.693-15.883-11.679-22.283-27.287-19.404-46.755,.092-.623,.012-1.272,.012-2.236-1.934,.168-3.492,.178-5,.454-11.02,2.018-21.98,4.341-32.707,7.582-8.369,2.528-16.646,5.367-24.923,8.189-1.535,.524-3.508,.719-4.128,2.732Zm485.195,16.021c1.104-1.582,1.937-2.687,2.677-3.851,17.572-27.614,35.136-55.234,52.692-82.859,.655-1.03,1.311-2.077,1.81-3.186,.705-1.564,.063-3.151-1.462-3.977-1.224-.664-2.778-.391-3.778,.794-.673,.798-1.222,1.705-1.785,2.59-17.754,27.914-35.505,55.83-53.241,83.755-.728,1.146-1.305,2.389-2.059,3.784,1.736,.996,3.229,1.852,5.145,2.95Zm-14.649-7.466c.507-.974,.818-1.414,.979-1.902,10.327-31.391,20.643-62.785,30.955-94.18,.272-.828,.574-1.658,.722-2.512,.264-1.532-.519-2.693-2.038-3.21-1.778-.606-3.252-.099-3.961,1.487-.498,1.113-.854,2.292-1.236,3.454-3.063,9.3-6.119,18.603-9.175,27.905-6.878,20.929-13.76,41.857-20.617,62.793-.417,1.272-.63,2.611-.955,3.992,1.255,.606,2.172,1.09,3.123,1.493,.611,.259,1.273,.399,2.205,.681Zm-458.797,194.222c-5.108-.836-12.028-.766-16.305,.219-.049,9.256-.037,18.635-.011,28.306,4.029,1.624,7.67,3.63,10.521,6.822,2.82,3.158,4.288,7.037,5.931,11.722,.591-7.745,.465-42.788-.136-47.069Zm499.146-.25c-.188,1.135-.347,1.648-.348,2.162-.01,13.989-.011,27.979,.035,41.968,.002,.484-.419,1.48,.789,1.49,1.044-3.393,2.425-6.565,4.67-9.33,2.943-3.625,6.877-5.834,10.901-7.455,.706-7.927,.49-24.816-.386-28.815-5.081-.561-10.232-.497-15.661-.019Zm-122.308-135.168c6.108,.043,11.022-4.82,11.062-10.947,.041-6.121-4.812-11.043-10.923-11.078-6.089-.035-11.065,4.864-11.112,10.939-.047,6.057,4.889,11.044,10.972,11.086Zm-287.138-86.43c-6.179-.064-11.059,4.636-11.132,10.722-.073,6.04,4.788,11.025,10.839,11.116,6.042,.091,11.048-4.777,11.129-10.823,.083-6.124-4.666-10.951-10.836-11.015Z" fill="#ffda64"/>
  <path d="M509.136,619.402c-.052-9.978,7.803-19.466,19.757-19.541,10.864-.068,19.521,8.923,19.454,19.831-.066,10.85-8.983,19.854-19.744,19.562-11.817-.32-19.609-9.629-19.467-19.853Z" fill="#ffda64"/>
  <path d="M455.527,609.293c-8.607,.162-14.599-7.49-14.613-14.705-.013-6.439,5.051-15.045,15.101-14.858,9.745,.181,14.809,8.331,14.608,15.344-.193,6.721-5.822,14.547-15.095,14.219Z" fill="#ffda64"/>
</svg>